<mxfile host="app.diagrams.net" modified="2024-06-07T15:19:21.558Z" agent="Mozilla/5.0 (Macintosh; Intel Mac OS X 10_15_7) AppleWebKit/537.36 (KHTML, like Gecko) Chrome/124.0.0.0 Safari/537.36" etag="syDK64kovqSb0DucfIOP" version="24.4.8" type="github">
  <diagram id="C5RBs43oDa-KdzZeNtuy" name="Page-1">
    <mxGraphModel dx="2261" dy="700" grid="1" gridSize="10" guides="1" tooltips="1" connect="1" arrows="1" fold="1" page="1" pageScale="1" pageWidth="827" pageHeight="1169" math="0" shadow="0">
      <root>
        <mxCell id="WIyWlLk6GJQsqaUBKTNV-0" />
        <mxCell id="WIyWlLk6GJQsqaUBKTNV-1" parent="WIyWlLk6GJQsqaUBKTNV-0" />
        <mxCell id="3XZQXlfWW6qlktNeJj7T-0" value="Message producer (Current - single message way)" style="swimlane;whiteSpace=wrap;html=1;" vertex="1" parent="WIyWlLk6GJQsqaUBKTNV-1">
          <mxGeometry x="-510" y="40" width="310" height="280" as="geometry" />
        </mxCell>
        <mxCell id="3XZQXlfWW6qlktNeJj7T-11" style="edgeStyle=orthogonalEdgeStyle;rounded=0;orthogonalLoop=1;jettySize=auto;html=1;exitX=1;exitY=0.5;exitDx=0;exitDy=0;entryX=0.75;entryY=0;entryDx=0;entryDy=0;" edge="1" parent="3XZQXlfWW6qlktNeJj7T-0" source="h4gprxFhjRKRvGBKynTk-0" target="3XZQXlfWW6qlktNeJj7T-10">
          <mxGeometry relative="1" as="geometry" />
        </mxCell>
        <mxCell id="h4gprxFhjRKRvGBKynTk-0" value="ByteSource" style="rounded=1;whiteSpace=wrap;html=1;fillColor=#D4E1F5;" parent="3XZQXlfWW6qlktNeJj7T-0" vertex="1">
          <mxGeometry x="104" y="40" width="110" height="30" as="geometry" />
        </mxCell>
        <mxCell id="3XZQXlfWW6qlktNeJj7T-12" style="edgeStyle=orthogonalEdgeStyle;rounded=0;orthogonalLoop=1;jettySize=auto;html=1;exitX=0.75;exitY=1;exitDx=0;exitDy=0;entryX=1;entryY=0.5;entryDx=0;entryDy=0;" edge="1" parent="3XZQXlfWW6qlktNeJj7T-0" source="3XZQXlfWW6qlktNeJj7T-10" target="h4gprxFhjRKRvGBKynTk-1">
          <mxGeometry relative="1" as="geometry" />
        </mxCell>
        <mxCell id="3XZQXlfWW6qlktNeJj7T-10" value="chunk slice" style="rounded=0;whiteSpace=wrap;html=1;" vertex="1" parent="3XZQXlfWW6qlktNeJj7T-0">
          <mxGeometry x="154" y="100" width="120" height="20" as="geometry" />
        </mxCell>
        <mxCell id="3XZQXlfWW6qlktNeJj7T-14" style="edgeStyle=orthogonalEdgeStyle;rounded=0;orthogonalLoop=1;jettySize=auto;html=1;exitX=0.75;exitY=1;exitDx=0;exitDy=0;entryX=0.25;entryY=0;entryDx=0;entryDy=0;" edge="1" parent="3XZQXlfWW6qlktNeJj7T-0" source="h4gprxFhjRKRvGBKynTk-1" target="3XZQXlfWW6qlktNeJj7T-13">
          <mxGeometry relative="1" as="geometry" />
        </mxCell>
        <mxCell id="3XZQXlfWW6qlktNeJj7T-16" style="edgeStyle=orthogonalEdgeStyle;rounded=0;orthogonalLoop=1;jettySize=auto;html=1;exitX=0;exitY=0.5;exitDx=0;exitDy=0;" edge="1" parent="3XZQXlfWW6qlktNeJj7T-0" source="h4gprxFhjRKRvGBKynTk-1" target="3XZQXlfWW6qlktNeJj7T-15">
          <mxGeometry relative="1" as="geometry" />
        </mxCell>
        <mxCell id="h4gprxFhjRKRvGBKynTk-1" value="Parser&amp;lt;T&amp;gt;" style="rounded=1;whiteSpace=wrap;html=1;fillColor=#D4E1F5;" parent="3XZQXlfWW6qlktNeJj7T-0" vertex="1">
          <mxGeometry x="104" y="150" width="120" height="30" as="geometry" />
        </mxCell>
        <mxCell id="3XZQXlfWW6qlktNeJj7T-13" value="message (?)" style="rounded=0;whiteSpace=wrap;html=1;" vertex="1" parent="3XZQXlfWW6qlktNeJj7T-0">
          <mxGeometry x="154" y="200" width="120" height="20" as="geometry" />
        </mxCell>
        <mxCell id="3XZQXlfWW6qlktNeJj7T-17" style="edgeStyle=orthogonalEdgeStyle;rounded=0;orthogonalLoop=1;jettySize=auto;html=1;exitX=0.5;exitY=0;exitDx=0;exitDy=0;entryX=0.25;entryY=1;entryDx=0;entryDy=0;" edge="1" parent="3XZQXlfWW6qlktNeJj7T-0" target="h4gprxFhjRKRvGBKynTk-0">
          <mxGeometry relative="1" as="geometry">
            <mxPoint x="71" y="106" as="sourcePoint" />
            <mxPoint x="131.5" y="76" as="targetPoint" />
            <Array as="points">
              <mxPoint x="71" y="86" />
              <mxPoint x="132" y="86" />
            </Array>
          </mxGeometry>
        </mxCell>
        <mxCell id="3XZQXlfWW6qlktNeJj7T-15" value="rest" style="rounded=0;whiteSpace=wrap;html=1;" vertex="1" parent="3XZQXlfWW6qlktNeJj7T-0">
          <mxGeometry x="11" y="100" width="120" height="20" as="geometry" />
        </mxCell>
        <mxCell id="3XZQXlfWW6qlktNeJj7T-4" value="WASM plugin" style="swimlane;whiteSpace=wrap;html=1;" vertex="1" parent="WIyWlLk6GJQsqaUBKTNV-1">
          <mxGeometry x="319" y="40" width="190" height="110" as="geometry" />
        </mxCell>
        <mxCell id="3XZQXlfWW6qlktNeJj7T-5" value="Parser&amp;lt;T&amp;gt;" style="rounded=1;whiteSpace=wrap;html=1;" vertex="1" parent="3XZQXlfWW6qlktNeJj7T-4">
          <mxGeometry x="40" y="50" width="120" height="30" as="geometry" />
        </mxCell>
        <mxCell id="3XZQXlfWW6qlktNeJj7T-7" value="WASM plugin (self producing)" style="swimlane;whiteSpace=wrap;html=1;" vertex="1" parent="WIyWlLk6GJQsqaUBKTNV-1">
          <mxGeometry x="320" y="321" width="360" height="200" as="geometry" />
        </mxCell>
        <mxCell id="3XZQXlfWW6qlktNeJj7T-40" style="edgeStyle=orthogonalEdgeStyle;rounded=0;orthogonalLoop=1;jettySize=auto;html=1;exitX=0.5;exitY=0;exitDx=0;exitDy=0;entryX=0.5;entryY=0;entryDx=0;entryDy=0;" edge="1" parent="3XZQXlfWW6qlktNeJj7T-7" source="3XZQXlfWW6qlktNeJj7T-8" target="3XZQXlfWW6qlktNeJj7T-9">
          <mxGeometry relative="1" as="geometry" />
        </mxCell>
        <mxCell id="3XZQXlfWW6qlktNeJj7T-8" value="Parser&amp;lt;T&amp;gt;" style="rounded=1;whiteSpace=wrap;html=1;" vertex="1" parent="3XZQXlfWW6qlktNeJj7T-7">
          <mxGeometry x="40" y="80" width="120" height="30" as="geometry" />
        </mxCell>
        <mxCell id="3XZQXlfWW6qlktNeJj7T-41" style="edgeStyle=orthogonalEdgeStyle;rounded=0;orthogonalLoop=1;jettySize=auto;html=1;exitX=0.5;exitY=1;exitDx=0;exitDy=0;entryX=0.5;entryY=1;entryDx=0;entryDy=0;" edge="1" parent="3XZQXlfWW6qlktNeJj7T-7" source="3XZQXlfWW6qlktNeJj7T-9" target="3XZQXlfWW6qlktNeJj7T-8">
          <mxGeometry relative="1" as="geometry" />
        </mxCell>
        <mxCell id="3XZQXlfWW6qlktNeJj7T-9" value="ByteSource" style="rounded=1;whiteSpace=wrap;html=1;" vertex="1" parent="3XZQXlfWW6qlktNeJj7T-7">
          <mxGeometry x="200" y="80" width="120" height="30" as="geometry" />
        </mxCell>
        <mxCell id="3XZQXlfWW6qlktNeJj7T-18" style="edgeStyle=orthogonalEdgeStyle;rounded=0;orthogonalLoop=1;jettySize=auto;html=1;exitX=0.5;exitY=1;exitDx=0;exitDy=0;entryX=0.5;entryY=0;entryDx=0;entryDy=0;" edge="1" parent="WIyWlLk6GJQsqaUBKTNV-1" source="3XZQXlfWW6qlktNeJj7T-13" target="3XZQXlfWW6qlktNeJj7T-39">
          <mxGeometry relative="1" as="geometry">
            <mxPoint x="-290" y="340" as="targetPoint" />
          </mxGeometry>
        </mxCell>
        <mxCell id="3XZQXlfWW6qlktNeJj7T-19" value="Message producer (Next - multiple messages way)" style="swimlane;whiteSpace=wrap;html=1;" vertex="1" parent="WIyWlLk6GJQsqaUBKTNV-1">
          <mxGeometry x="-120" y="40" width="310" height="280" as="geometry" />
        </mxCell>
        <mxCell id="3XZQXlfWW6qlktNeJj7T-20" style="edgeStyle=orthogonalEdgeStyle;rounded=0;orthogonalLoop=1;jettySize=auto;html=1;exitX=1;exitY=0.5;exitDx=0;exitDy=0;entryX=0.75;entryY=0;entryDx=0;entryDy=0;" edge="1" parent="3XZQXlfWW6qlktNeJj7T-19" source="3XZQXlfWW6qlktNeJj7T-21" target="3XZQXlfWW6qlktNeJj7T-23">
          <mxGeometry relative="1" as="geometry" />
        </mxCell>
        <mxCell id="3XZQXlfWW6qlktNeJj7T-21" value="ByteSource" style="rounded=1;whiteSpace=wrap;html=1;fillColor=#D4E1F5;" vertex="1" parent="3XZQXlfWW6qlktNeJj7T-19">
          <mxGeometry x="104" y="40" width="110" height="30" as="geometry" />
        </mxCell>
        <mxCell id="3XZQXlfWW6qlktNeJj7T-22" style="edgeStyle=orthogonalEdgeStyle;rounded=0;orthogonalLoop=1;jettySize=auto;html=1;exitX=0.75;exitY=1;exitDx=0;exitDy=0;entryX=1;entryY=0.5;entryDx=0;entryDy=0;" edge="1" parent="3XZQXlfWW6qlktNeJj7T-19" source="3XZQXlfWW6qlktNeJj7T-23" target="3XZQXlfWW6qlktNeJj7T-26">
          <mxGeometry relative="1" as="geometry" />
        </mxCell>
        <mxCell id="3XZQXlfWW6qlktNeJj7T-23" value="chunk slice" style="rounded=0;whiteSpace=wrap;html=1;" vertex="1" parent="3XZQXlfWW6qlktNeJj7T-19">
          <mxGeometry x="154" y="100" width="120" height="20" as="geometry" />
        </mxCell>
        <mxCell id="3XZQXlfWW6qlktNeJj7T-24" style="edgeStyle=orthogonalEdgeStyle;rounded=0;orthogonalLoop=1;jettySize=auto;html=1;exitX=0.75;exitY=1;exitDx=0;exitDy=0;entryX=0.25;entryY=0;entryDx=0;entryDy=0;" edge="1" parent="3XZQXlfWW6qlktNeJj7T-19" source="3XZQXlfWW6qlktNeJj7T-26" target="3XZQXlfWW6qlktNeJj7T-27">
          <mxGeometry relative="1" as="geometry" />
        </mxCell>
        <mxCell id="3XZQXlfWW6qlktNeJj7T-25" style="edgeStyle=orthogonalEdgeStyle;rounded=0;orthogonalLoop=1;jettySize=auto;html=1;exitX=0;exitY=0.5;exitDx=0;exitDy=0;" edge="1" parent="3XZQXlfWW6qlktNeJj7T-19" source="3XZQXlfWW6qlktNeJj7T-26" target="3XZQXlfWW6qlktNeJj7T-29">
          <mxGeometry relative="1" as="geometry" />
        </mxCell>
        <mxCell id="3XZQXlfWW6qlktNeJj7T-26" value="Parser&amp;lt;T&amp;gt;" style="rounded=1;whiteSpace=wrap;html=1;fillColor=#D4E1F5;" vertex="1" parent="3XZQXlfWW6qlktNeJj7T-19">
          <mxGeometry x="104" y="150" width="120" height="30" as="geometry" />
        </mxCell>
        <mxCell id="3XZQXlfWW6qlktNeJj7T-27" value="message" style="rounded=0;whiteSpace=wrap;html=1;" vertex="1" parent="3XZQXlfWW6qlktNeJj7T-19">
          <mxGeometry x="154" y="200" width="120" height="20" as="geometry" />
        </mxCell>
        <mxCell id="3XZQXlfWW6qlktNeJj7T-28" style="edgeStyle=orthogonalEdgeStyle;rounded=0;orthogonalLoop=1;jettySize=auto;html=1;exitX=0.5;exitY=0;exitDx=0;exitDy=0;entryX=0.25;entryY=1;entryDx=0;entryDy=0;" edge="1" parent="3XZQXlfWW6qlktNeJj7T-19" target="3XZQXlfWW6qlktNeJj7T-21">
          <mxGeometry relative="1" as="geometry">
            <mxPoint x="71" y="106" as="sourcePoint" />
            <mxPoint x="131.5" y="76" as="targetPoint" />
            <Array as="points">
              <mxPoint x="71" y="86" />
              <mxPoint x="132" y="86" />
            </Array>
          </mxGeometry>
        </mxCell>
        <mxCell id="3XZQXlfWW6qlktNeJj7T-29" value="rest" style="rounded=0;whiteSpace=wrap;html=1;" vertex="1" parent="3XZQXlfWW6qlktNeJj7T-19">
          <mxGeometry x="11" y="100" width="120" height="20" as="geometry" />
        </mxCell>
        <mxCell id="3XZQXlfWW6qlktNeJj7T-34" value="message" style="rounded=0;whiteSpace=wrap;html=1;" vertex="1" parent="WIyWlLk6GJQsqaUBKTNV-1">
          <mxGeometry x="44" y="250" width="120" height="20" as="geometry" />
        </mxCell>
        <mxCell id="3XZQXlfWW6qlktNeJj7T-35" value="message" style="rounded=0;whiteSpace=wrap;html=1;" vertex="1" parent="WIyWlLk6GJQsqaUBKTNV-1">
          <mxGeometry x="54" y="260" width="120" height="20" as="geometry" />
        </mxCell>
        <mxCell id="3XZQXlfWW6qlktNeJj7T-38" style="edgeStyle=orthogonalEdgeStyle;rounded=0;orthogonalLoop=1;jettySize=auto;html=1;exitX=0.25;exitY=1;exitDx=0;exitDy=0;entryX=0.5;entryY=0;entryDx=0;entryDy=0;" edge="1" parent="WIyWlLk6GJQsqaUBKTNV-1" source="3XZQXlfWW6qlktNeJj7T-36" target="3XZQXlfWW6qlktNeJj7T-37">
          <mxGeometry relative="1" as="geometry" />
        </mxCell>
        <mxCell id="3XZQXlfWW6qlktNeJj7T-36" value="message" style="rounded=0;whiteSpace=wrap;html=1;" vertex="1" parent="WIyWlLk6GJQsqaUBKTNV-1">
          <mxGeometry x="64" y="270" width="120" height="20" as="geometry" />
        </mxCell>
        <mxCell id="3XZQXlfWW6qlktNeJj7T-37" value="session" style="rounded=1;whiteSpace=wrap;html=1;fillColor=#D4E1F5;" vertex="1" parent="WIyWlLk6GJQsqaUBKTNV-1">
          <mxGeometry x="34" y="340" width="120" height="30" as="geometry" />
        </mxCell>
        <mxCell id="3XZQXlfWW6qlktNeJj7T-39" value="session" style="rounded=1;whiteSpace=wrap;html=1;fillColor=#D4E1F5;" vertex="1" parent="WIyWlLk6GJQsqaUBKTNV-1">
          <mxGeometry x="-356" y="340" width="120" height="30" as="geometry" />
        </mxCell>
        <mxCell id="3XZQXlfWW6qlktNeJj7T-42" value="session" style="rounded=1;whiteSpace=wrap;html=1;fillColor=#D4E1F5;" vertex="1" parent="WIyWlLk6GJQsqaUBKTNV-1">
          <mxGeometry x="320" y="626" width="120" height="30" as="geometry" />
        </mxCell>
        <mxCell id="3XZQXlfWW6qlktNeJj7T-45" style="edgeStyle=orthogonalEdgeStyle;rounded=0;orthogonalLoop=1;jettySize=auto;html=1;exitX=1;exitY=0.5;exitDx=0;exitDy=0;entryX=1;entryY=0.5;entryDx=0;entryDy=0;" edge="1" parent="WIyWlLk6GJQsqaUBKTNV-1" source="3XZQXlfWW6qlktNeJj7T-43" target="3XZQXlfWW6qlktNeJj7T-42">
          <mxGeometry relative="1" as="geometry" />
        </mxCell>
        <mxCell id="3XZQXlfWW6qlktNeJj7T-43" value="proxy(?)" style="rounded=1;whiteSpace=wrap;html=1;fillColor=#D4E1F5;" vertex="1" parent="WIyWlLk6GJQsqaUBKTNV-1">
          <mxGeometry x="320" y="561" width="120" height="30" as="geometry" />
        </mxCell>
        <mxCell id="3XZQXlfWW6qlktNeJj7T-44" style="edgeStyle=orthogonalEdgeStyle;rounded=0;orthogonalLoop=1;jettySize=auto;html=1;exitX=0;exitY=0.5;exitDx=0;exitDy=0;entryX=0;entryY=0.5;entryDx=0;entryDy=0;" edge="1" parent="WIyWlLk6GJQsqaUBKTNV-1" source="3XZQXlfWW6qlktNeJj7T-8" target="3XZQXlfWW6qlktNeJj7T-43">
          <mxGeometry relative="1" as="geometry">
            <Array as="points">
              <mxPoint x="270" y="416" />
              <mxPoint x="270" y="576" />
            </Array>
          </mxGeometry>
        </mxCell>
        <mxCell id="3XZQXlfWW6qlktNeJj7T-46" value="message" style="rounded=0;whiteSpace=wrap;html=1;" vertex="1" parent="WIyWlLk6GJQsqaUBKTNV-1">
          <mxGeometry x="164" y="461" width="120" height="20" as="geometry" />
        </mxCell>
        <mxCell id="3XZQXlfWW6qlktNeJj7T-47" value="message" style="rounded=0;whiteSpace=wrap;html=1;" vertex="1" parent="WIyWlLk6GJQsqaUBKTNV-1">
          <mxGeometry x="174" y="471" width="120" height="20" as="geometry" />
        </mxCell>
        <mxCell id="3XZQXlfWW6qlktNeJj7T-48" value="message" style="rounded=0;whiteSpace=wrap;html=1;" vertex="1" parent="WIyWlLk6GJQsqaUBKTNV-1">
          <mxGeometry x="184" y="481" width="120" height="20" as="geometry" />
        </mxCell>
        <mxCell id="3XZQXlfWW6qlktNeJj7T-49" value="message" style="rounded=0;whiteSpace=wrap;html=1;" vertex="1" parent="WIyWlLk6GJQsqaUBKTNV-1">
          <mxGeometry x="194" y="491" width="120" height="20" as="geometry" />
        </mxCell>
        <mxCell id="3XZQXlfWW6qlktNeJj7T-50" value="WASM plugin" style="swimlane;whiteSpace=wrap;html=1;" vertex="1" parent="WIyWlLk6GJQsqaUBKTNV-1">
          <mxGeometry x="600" y="40" width="190" height="110" as="geometry" />
        </mxCell>
        <mxCell id="3XZQXlfWW6qlktNeJj7T-51" value="ByteSource" style="rounded=1;whiteSpace=wrap;html=1;" vertex="1" parent="3XZQXlfWW6qlktNeJj7T-50">
          <mxGeometry x="40" y="50" width="120" height="30" as="geometry" />
        </mxCell>
        <mxCell id="3XZQXlfWW6qlktNeJj7T-52" style="edgeStyle=orthogonalEdgeStyle;rounded=0;orthogonalLoop=1;jettySize=auto;html=1;exitX=1;exitY=0.5;exitDx=0;exitDy=0;entryX=0;entryY=0.5;entryDx=0;entryDy=0;" edge="1" parent="WIyWlLk6GJQsqaUBKTNV-1" source="3XZQXlfWW6qlktNeJj7T-5" target="3XZQXlfWW6qlktNeJj7T-51">
          <mxGeometry relative="1" as="geometry" />
        </mxCell>
        <mxCell id="3XZQXlfWW6qlktNeJj7T-53" value="?????" style="edgeLabel;html=1;align=center;verticalAlign=middle;resizable=0;points=[];" vertex="1" connectable="0" parent="3XZQXlfWW6qlktNeJj7T-52">
          <mxGeometry x="-0.1925" y="-2" relative="1" as="geometry">
            <mxPoint as="offset" />
          </mxGeometry>
        </mxCell>
        <mxCell id="3XZQXlfWW6qlktNeJj7T-55" value="WASM plugin" style="swimlane;whiteSpace=wrap;html=1;" vertex="1" parent="WIyWlLk6GJQsqaUBKTNV-1">
          <mxGeometry x="600" y="170" width="190" height="110" as="geometry" />
        </mxCell>
        <mxCell id="3XZQXlfWW6qlktNeJj7T-54" value="Provider&amp;lt;T&amp;gt;" style="rounded=1;whiteSpace=wrap;html=1;" vertex="1" parent="3XZQXlfWW6qlktNeJj7T-55">
          <mxGeometry x="35" y="50" width="120" height="30" as="geometry" />
        </mxCell>
      </root>
    </mxGraphModel>
  </diagram>
</mxfile>
